<?xml version="1.0" encoding="UTF-8" standalone="no"?><!DOCTYPE svg PUBLIC "-//W3C//DTD SVG 1.1//EN" "http://www.w3.org/Graphics/SVG/1.1/DTD/svg11.dtd"><svg width="100%" height="100%" viewBox="0 0 2000 680" version="1.1" xmlns="http://www.w3.org/2000/svg" xmlns:xlink="http://www.w3.org/1999/xlink" xml:space="preserve" xmlns:serif="http://www.serif.com/" style="fill-rule:evenodd;clip-rule:evenodd;stroke-linejoin:round;stroke-miterlimit:2;"><rect id="Página-13" serif:id="Página 13" x="0" y="0" width="2000" height="680" style="fill:none;"/><text x="550.989px" y="431.283px" style="font-family:'Quicksand-Bold', 'Quicksand';font-weight:700;font-size:290.983px;fill:#fff;">Lock<tspan x="1206.575px " y="431.283px ">e</tspan>rbol</text><g id="Capa-5" serif:id="Capa 5"><path d="M286.819,589.141c12.995,-0.192 53.37,-20.136 67.025,-26.771c13.664,-6.639 27.031,-11.448 31.004,-27.881c2.898,-135.373 0.367,-271.239 1.274,-406.796c-1.456,-22.525 -13.202,-25.447 -32.567,-28.842c-18.369,-3.22 -48.999,-9.29 -66.737,-9.393c-12.057,-0.07 -28.334,3.375 -40.659,5.188c-13.206,1.943 -42.911,4.69 -52.643,12.13c-5.255,4.018 -8.063,9.108 -9.774,15.462c-2.897,128.643 -0.367,257.78 -1.275,386.607c0.926,27.042 1.158,37.472 26.657,49.894c16.792,8.18 36.828,17.21 54.166,24.067c7.501,2.966 15.223,6.458 23.528,6.336m115.247,-464.352l-0.033,372.272c3.502,56.298 77.235,22.123 78.158,-16.123l0.14,-297.716c-0.592,-8.033 -4.374,-20.069 -9.286,-26.466c5.013,-1.317 6.654,-9.386 10.754,-12.304c7.063,8.968 13.172,18.973 15.109,30.605c1.768,105.373 1.738,211.347 0.016,316.723c-2.563,13.569 -14.033,30.279 -25.037,38.476c-1.461,1.088 -1.561,1.604 -1.682,1.682c-3.079,1.986 -10.877,5.413 -14.841,7.451c-45.463,23.369 -96.825,49.06 -143.581,69.248c-23.044,9.95 -35.022,8.246 -57.499,-1.682c-44.243,-19.544 -91.014,-42.455 -134.328,-64.2c-27.061,-13.586 -45.479,-28.02 -47.682,-60.835c0.689,-101.746 -1.219,-203.653 0.974,-305.298c1.271,-8.386 3.627,-15.903 7.879,-23.247c0.928,-1.603 2.883,-6.233 5.079,-5.1c4.171,2.153 7.564,6.88 12.181,8.481c-3.915,6.055 -7.902,18.257 -8.445,25.625l-0.008,291.975c0.152,20.635 12.406,37.086 30.307,46.244c23.857,12.205 42.797,7.172 47.155,-21.017l-0.03,-373.111c-0.64,-25.873 15.835,-43.073 40.225,-48.523c24.639,-5.507 66.238,-13.879 90.464,-11.083c19.174,2.214 43.172,6.275 62.104,10.24c26.081,5.464 40.865,20.42 41.907,47.683" style="fill:#fbfbfc;fill-rule:nonzero;"/><path d="M214.235,177.125c11.209,0.855 26.014,-1.797 36.783,-0.13c6.438,0.996 7.006,8.872 0.871,10.864l-37.812,0c-5.285,-0.984 -5.188,-9.509 0.159,-10.734" style="fill:#fbfbfc;fill-rule:nonzero;"/><path d="M215.099,250.334c5.771,-1.054 29.008,-0.97 35.05,-0.127c8.683,1.211 8.991,9.783 -1.617,10.846c-6.959,0.698 -27.035,0.986 -33.584,-0.041c-6.101,-0.956 -6.741,-9.42 0.151,-10.679" style="fill:#fbfbfc;fill-rule:nonzero;"/><path d="M212.51,196.431l40.223,-0.122c5.6,2.016 4.215,8.265 -0.845,10.056c-11.303,-1.173 -26.083,1.679 -36.939,-0.032c-5.113,-0.805 -6.393,-6.835 -2.438,-9.903" style="fill:#fbfbfc;fill-rule:nonzero;"/><path d="M213.391,268.815c11.746,0.9 27.163,-1.851 38.462,-0.121c6.222,0.952 4.664,9.156 0.035,10.016l-37.811,0c-4.996,-1.503 -5.309,-7.664 -0.685,-9.895" style="fill:#fbfbfc;fill-rule:nonzero;"/><path d="M213.375,214.121c11.758,0.928 27.166,-1.838 38.477,-0.106c6.223,0.952 4.664,9.156 0.035,10.016c-11.308,-1.169 -26.075,1.676 -36.939,-0.031c-5.563,-0.874 -6.194,-7.187 -1.573,-9.879" style="fill:#fbfbfc;fill-rule:nonzero;"/><path d="M212.15,233.505c2.563,-2.566 33.909,-0.229 39.737,-1.019c5.274,1.213 5.144,9.095 0,10.051c-6.785,-1.124 -35.484,1.941 -39.453,-0.881c-1.954,-1.39 -1.839,-6.594 -0.284,-8.151" style="fill:#fbfbfc;fill-rule:nonzero;"/><path d="M480.552,142.782c-5.559,-6.411 -11.563,-11.279 -19.294,-14.946c-22.647,-8.348 -45.272,-16.703 -68.063,-24.707c0.082,0.641 0.061,1.328 -0.102,2.063c-1.262,5.679 -0.727,10.918 -0.395,16.43l57.793,19.901c6.79,2.911 17.09,10.934 21.54,16.608c3.016,-3.844 12.304,-9.775 12.304,-9.775c0,0 -2.568,-4.175 -3.782,-5.575" style="fill:#fbfbfc;fill-rule:nonzero;"/><path d="M86.428,145.281c5.559,-6.411 11.563,-11.279 19.294,-14.946c22.647,-8.348 45.272,-16.703 68.063,-24.707c-0.082,0.641 -0.061,1.328 0.102,2.063c1.262,5.679 0.727,10.918 0.395,16.43l-57.793,19.901c-6.79,2.911 -17.09,10.934 -21.54,16.608c-3.016,-3.844 -12.304,-9.775 -12.304,-9.775c0,0 2.568,-4.175 3.782,-5.575" style="fill:#fbfbfc;fill-rule:nonzero;"/></g></svg>